<svg width="31" height="36" viewBox="0 0 31 36" fill="none" xmlns="http://www.w3.org/2000/svg">
<path d="M1.9095e-09 10.125V7.66406C0.046131 6.77344 0.392113 6.02344 1.03795 5.41406C1.68378 4.80469 2.44494 4.5 3.32143 4.5H6.64286V3.375C6.64286 2.4375 6.96577 1.64063 7.61161 0.984375C8.25744 0.328125 9.04167 0 9.96429 0H21.0357C21.9583 0 22.7426 0.328125 23.3884 0.984375C24.0342 1.64063 24.3571 2.4375 24.3571 3.375V4.5H27.6786C28.5551 4.5 29.3162 4.80469 29.9621 5.41406C30.6079 6.02344 30.9539 6.77344 31 7.66406V10.125C31 10.7344 30.7809 11.2617 30.3427 11.707C29.9044 12.1524 29.3854 12.375 28.7857 12.375V31.5C28.7857 32.7656 28.359 33.832 27.5056 34.6992C26.6522 35.5664 25.6027 36 24.3571 36H6.64286C5.39732 36 4.34784 35.5664 3.4944 34.6992C2.64097 33.8321 2.21426 32.7656 2.21429 31.5V12.375C1.61458 12.375 1.0956 12.1524 0.657348 11.707C0.219092 11.2617 -2.36187e-05 10.7344 1.9095e-09 10.125ZM2.21429 10.125H28.7857V7.875C28.7857 7.54688 28.6819 7.27734 28.4743 7.06639C28.2667 6.85544 28.0015 6.74996 27.6785 6.74996H3.32139C2.99848 6.74996 2.73322 6.85544 2.52562 7.06639C2.31802 7.27734 2.21421 7.54688 2.21421 7.875V10.125H2.21429ZM4.42857 31.5C4.42857 32.1094 4.64769 32.6367 5.08592 33.082C5.52415 33.5274 6.04313 33.75 6.64286 33.75H24.3571C24.9568 33.75 25.4758 33.5273 25.9141 33.082C26.3523 32.6367 26.5715 32.1094 26.5714 31.5V12.375H4.42857V31.5ZM6.64286 30.375V15.75C6.64286 15.4219 6.74666 15.1523 6.95426 14.9414C7.16186 14.7304 7.42712 14.625 7.75004 14.625H9.96432C10.2872 14.625 10.5525 14.7304 10.7601 14.9414C10.9677 15.1523 11.0715 15.4219 11.0715 15.75V30.375C11.0715 30.7031 10.9677 30.9727 10.7601 31.1836C10.5525 31.3946 10.2872 31.5 9.96432 31.5H7.75004C7.42712 31.5 7.16186 31.3946 6.95426 31.1836C6.74666 30.9727 6.64286 30.7031 6.64286 30.375ZM7.75 30.375H9.96429V15.75H7.75V30.375ZM8.85714 4.5H22.1429V3.375C22.1429 3.04687 22.0391 2.77734 21.8315 2.56639C21.6239 2.35544 21.3586 2.24996 21.0357 2.24996H9.96425C9.64133 2.24996 9.37608 2.35544 9.16847 2.56639C8.96087 2.77734 8.85707 3.04687 8.85707 3.375V4.5H8.85714ZM13.2857 30.375V15.75C13.2857 15.4219 13.3895 15.1523 13.5971 14.9414C13.8047 14.7304 14.07 14.625 14.3929 14.625H16.6072C16.9301 14.625 17.1954 14.7304 17.403 14.9414C17.6106 15.1523 17.7144 15.4219 17.7144 15.75V30.375C17.7144 30.7031 17.6106 30.9727 17.403 31.1836C17.1954 31.3946 16.9301 31.5 16.6072 31.5H14.3929C14.07 31.5 13.8047 31.3946 13.5971 31.1836C13.3895 30.9727 13.2857 30.7031 13.2857 30.375ZM14.3929 30.375H16.6071V15.75H14.3929V30.375ZM19.9286 30.375V15.75C19.9286 15.4219 20.0324 15.1523 20.24 14.9414C20.4476 14.7304 20.7128 14.625 21.0358 14.625H23.25C23.573 14.625 23.8382 14.7304 24.0458 14.9414C24.2534 15.1523 24.3572 15.4219 24.3572 15.75V30.375C24.3572 30.7031 24.2534 30.9727 24.0458 31.1836C23.8382 31.3946 23.573 31.5 23.25 31.5H21.0358C20.7128 31.5 20.4476 31.3946 20.24 31.1836C20.0324 30.9727 19.9286 30.7031 19.9286 30.375ZM21.0357 30.375H23.25V15.75H21.0357V30.375Z" fill="black"/>
</svg>
